<svg version="1.2" xmlns="http://www.w3.org/2000/svg" viewBox="0 0 663 182" width="663" height="182">
	<style>
		.s0 { fill: #000000 } 
		.s1 { fill: none;stroke: #00ffff;stroke-miterlimit:100;stroke-width: 3.6 } 
		.s2 { fill: none;stroke: #ff00ff;stroke-miterlimit:100;stroke-width: 3.6 } 
		.s3 { fill: none;stroke: #ffff00;stroke-miterlimit:100;stroke-width: 3.6 } 
		.s4 { fill: none;stroke: #ff0000;stroke-miterlimit:100;stroke-width: 3.6 } 
		.s5 { fill: #00ffff } 
		.s6 { fill: #ff0000 } 
		.s7 { fill: #ff00ff } 
		.s8 { fill: #ffff00 } 
	</style>
	<path id="(x-r)(x-s)" class="s0" aria-label="(x-r)(x-s)"  d="m179.3 44.6h4.9q-4.1 7-6.1 13.8-2 6.9-2 14 0 7 2 14 2 6.9 6.1 13.8h-4.9q-4.6-7.1-6.9-14.1-2.2-6.9-2.2-13.7 0-6.8 2.2-13.7 2.3-6.9 6.9-14.1zm37.6 13.2h6.6l-12.4 16.6 13 17.6h-6.6l-9.9-13.4-10 13.4h-6.6l13.3-17.9-12.2-16.3h6.6l9.1 12.2zm12.4 19.6v-5h16.4v5zm45.2-20.1v5.7q-0.9-0.5-2-0.8-1.1-0.2-2.5-0.2-4.7 0-7.3 3.1-2.5 3.1-2.5 8.9v18h-5.7v-34.2h5.7v5.3q1.7-3.1 4.6-4.6 2.8-1.5 6.9-1.5 0.5 0 1.2 0.1 0.7 0 1.6 0.2zm5-12.8h4.9q4.6 7.2 6.9 14.1 2.3 6.9 2.3 13.8 0 6.8-2.3 13.7-2.3 6.9-6.9 14.1h-4.9q4.1-7 6.1-13.9 2-6.9 2-13.9 0-7.1-2-14-2-6.8-6.1-13.9zm33.9 0h4.9q-4.1 7.1-6.1 13.9-1.9 6.9-1.9 14 0 7 1.9 13.9 2.1 6.9 6.1 13.9h-4.9q-4.6-7.2-6.8-14.1-2.3-6.9-2.3-13.7 0-6.9 2.3-13.8 2.2-6.9 6.8-14.1zm37.6 13.3h6.6l-12.3 16.6 13 17.6h-6.7l-9.9-13.5-10 13.5h-6.6l13.3-17.9-12.2-16.3h6.7l9 12.2zm12.4 19.5v-5h16.5v5zm47.2-18.5v5.3q-2.4-1.2-5-1.8-2.6-0.7-5.3-0.7-4.2 0-6.3 1.3-2.1 1.3-2.1 3.9 0 1.9 1.5 3.1 1.5 1.1 6 2.1l2 0.4q5.9 1.3 8.5 3.6 2.5 2.3 2.5 6.5 0 4.8-3.8 7.6-3.8 2.7-10.3 2.7-2.8 0-5.8-0.5-2.9-0.5-6.2-1.6v-5.8q3.1 1.6 6.1 2.5 3 0.7 6 0.7 3.9 0 6.1-1.3 2.1-1.4 2.1-3.8 0-2.3-1.5-3.6-1.6-1.2-6.8-2.3l-1.9-0.5q-5.3-1.1-7.6-3.3-2.3-2.3-2.3-6.3 0-4.8 3.4-7.4 3.4-2.7 9.7-2.7 3.1 0 5.9 0.5 2.7 0.5 5.1 1.4zm9.8-14.3h4.9q4.6 7.2 6.9 14.1 2.3 6.9 2.3 13.7 0 6.9-2.3 13.8-2.3 6.9-6.9 14.1h-4.9q4.1-7 6.1-13.9 2-6.9 2-14 0-7-2-13.9-2-6.9-6.1-13.9z"/>
	<path id="Forma 1" class="s1" d="m206.5 50.4c0 0 60-52 134.5-2"/>
	<path id="Forma 1 copy 2" class="s2" d="m256.7 95.6c0 0 38 28.4 88-3.6"/>
	<path id="Forma 1 copy 3" class="s3" d="m256.7 95.6c0 0-16.4 38.7 140.6 0.4"/>
	<path id="Forma 1 copy" class="s4" d="m206.5 50.4c0 0 31.8-81.4 191.8-1.1"/>
	<path id="x² + -sx + -rx + -r*-s" class="s0" aria-label="x² + -sx + -rx + -r*-s"  d="m35.7 134.8h6.6l-12.4 16.6 13.1 17.6h-6.7l-9.9-13.4-10 13.4h-6.6l13.3-17.9-12.2-16.3h6.7l9 12.2zm17.5 10.3h13v3.5h-18.3v-3.4q1-0.9 3-2.6 10.5-9.3 10.5-12.2 0-2-1.6-3.2-1.6-1.3-4.2-1.3-1.6 0-3.5 0.6-1.8 0.5-4 1.5v-3.7q2.3-0.9 4.4-1.3 2-0.4 3.7-0.4 4.5 0 7.1 2 2.7 2 2.7 5.3 0 4.2-10.1 12.9-1.7 1.5-2.7 2.3zm60.4-15.3h5.1v17h17v5.2h-17v17h-5.1v-17h-17v-5.2h17zm51.7 24.6v-5h16.4v5zm47.2-18.6v5.3q-2.3-1.2-4.9-1.8-2.6-0.6-5.3-0.6-4.2 0-6.3 1.3-2.1 1.2-2.1 3.8 0 2 1.5 3.1 1.5 1.1 6 2.1l1.9 0.4q6 1.3 8.5 3.6 2.6 2.4 2.6 6.6 0 4.7-3.8 7.5-3.8 2.8-10.4 2.8-2.7 0-5.7-0.5-3-0.6-6.3-1.7v-5.8q3.1 1.7 6.2 2.5 3 0.8 6 0.8 3.9 0 6.1-1.4 2.1-1.3 2.1-3.8 0-2.3-1.6-3.5-1.5-1.3-6.7-2.4l-2-0.4q-5.2-1.1-7.5-3.4-2.3-2.3-2.3-6.3 0-4.8 3.4-7.4 3.4-2.6 9.7-2.6 3.1 0 5.9 0.4 2.7 0.5 5 1.4zm32.6-1h6.6l-12.3 16.6 13 17.6h-6.7l-9.9-13.4-10 13.4h-6.6l13.3-17.9-12.2-16.3h6.7l9 12.2zm52.9-5h5.1v17h17v5.2h-17v17h-5.1v-17h-17.1v-5.2h17.1zm51.6 24.5v-5h16.5v5zm45.2-20v5.7q-0.9-0.5-2.1-0.8-1.1-0.2-2.4-0.2-4.8 0-7.3 3.1-2.6 3.1-2.6 8.9v18h-5.6v-34.2h5.6v5.3q1.8-3.1 4.6-4.6 2.9-1.5 6.9-1.5 0.6 0 1.3 0 0.7 0.1 1.6 0.3zm26 0.5h6.6l-12.3 16.6 13 17.6h-6.6l-10-13.5-10 13.5h-6.6l13.3-17.9-12.1-16.3h6.6l9 12.2zm52.9-5h5.1v17h17v5.1h-17v17.1h-5.1v-17.1h-17v-5.1h17zm51.6 24.5v-5h16.5v5zm45.2-20.1v5.8q-0.9-0.5-2.1-0.8-1.1-0.3-2.4-0.3-4.8 0-7.3 3.2-2.6 3-2.6 8.8v18.1h-5.6v-34.2h5.6v5.3q1.8-3.1 4.6-4.6 2.9-1.6 6.9-1.6 0.6 0 1.3 0.1 0.7 0.1 1.6 0.2zm27.6-6.3l1.8 3-11 5.9 11 6-1.8 3-10.2-6.2v11.5h-3.5v-11.5l-10.3 6.2-1.7-3 10.9-6-10.9-5.9 1.7-3 10.3 6.2v-11.5h3.5v11.5zm6.7 26.4v-5h16.4v5zm47.2-18.5v5.3q-2.4-1.2-4.9-1.9-2.6-0.6-5.3-0.6-4.2 0-6.3 1.3-2.1 1.3-2.1 3.9 0 1.9 1.5 3 1.5 1.1 6 2.2l1.9 0.4q6 1.3 8.5 3.6 2.5 2.3 2.5 6.5 0 4.8-3.7 7.6-3.8 2.7-10.4 2.7-2.7 0-5.7-0.5-3-0.5-6.3-1.6v-5.8q3.1 1.6 6.2 2.4 3 0.8 5.9 0.8 4 0 6.1-1.3 2.2-1.4 2.2-3.9 0-2.2-1.6-3.5-1.5-1.2-6.7-2.3l-2-0.5q-5.2-1.1-7.5-3.3-2.3-2.3-2.3-6.3 0-4.8 3.4-7.4 3.4-2.7 9.7-2.7 3.1 0 5.8 0.5 2.8 0.5 5.1 1.4z"/>
	<path id="Forma 2" class="s5" d="m8 172h56v5h-56z"/>
	<path id="Forma 2 copy" class="s6" d="m175 172h73v5h-73z"/>
	<path id="Forma 2 copy 2" class="s7" d="m355 172h73v5h-73z"/>
	<path id="Forma 2 copy 3" class="s8" d="m528 172h129v5h-129z"/>
</svg>