<svg version="1.2" xmlns="http://www.w3.org/2000/svg" viewBox="0 0 156 118" width="156" height="118">
	<path id="2" class="svgText" aria-label="2"  d="m72 106.8h21.5v5.2h-28.9v-5.2q3.5-3.6 9.5-9.7 6.1-6.2 7.7-7.9 2.9-3.4 4.1-5.7 1.2-2.3 1.2-4.5 0-3.6-2.6-5.9-2.5-2.3-6.6-2.3-2.9 0-6.1 1-3.3 1-6.9 3v-6.2q3.7-1.5 6.9-2.2 3.3-0.8 6-0.8 7 0 11.3 3.5 4.2 3.6 4.2 9.5 0 2.8-1.1 5.3-1 2.5-3.8 6-0.8 0.9-4.9 5.1-4.1 4.2-11.5 11.8z"/>
	<path id="r + s" class="svgText" aria-label="r + s"  d="m27.5 8.3v5.8q-0.9-0.6-2.1-0.8-1.1-0.3-2.4-0.3-4.8 0-7.3 3.1-2.6 3.1-2.6 8.9v18h-5.6v-34.2h5.6v5.3q1.8-3.1 4.6-4.6 2.9-1.5 6.9-1.5 0.6 0 1.3 0.1 0.7 0 1.6 0.2zm43.5-4.5h5.1v17h17v5.2h-17v17h-5.1v-17h-17v-5.2h17zm76.3 6v5.3q-2.4-1.2-4.9-1.8-2.6-0.6-5.3-0.6-4.2 0-6.3 1.3-2.1 1.3-2.1 3.8 0 2 1.5 3.1 1.5 1.1 6 2.1l1.9 0.4q6 1.3 8.5 3.7 2.6 2.3 2.6 6.5 0 4.7-3.8 7.5-3.8 2.8-10.4 2.8-2.7 0-5.7-0.5-3-0.6-6.3-1.6v-5.8q3.1 1.6 6.2 2.4 3 0.8 5.9 0.8 4 0 6.1-1.4 2.2-1.3 2.2-3.8 0-2.3-1.6-3.5-1.5-1.2-6.7-2.4l-2-0.4q-5.2-1.1-7.5-3.4-2.3-2.3-2.3-6.2 0-4.9 3.4-7.5 3.4-2.6 9.7-2.6 3.1 0 5.9 0.4 2.7 0.5 5 1.4z"/>
	<path id="Forma 1" class="svgText" d="m6 50h143v6h-143z"/>
</svg>