<svg version="1.2" xmlns="http://www.w3.org/2000/svg" viewBox="0 0 663 182" width="663" height="182">
	<style>
		.s0 { fill: none;stroke: #00ffff;stroke-miterlimit:100;stroke-width: 3.6 }
		.s2 { fill: none;stroke: #ff00ff;stroke-miterlimit:100;stroke-width: 3.6 } 
		.s3 { fill: none;stroke: #ffff00;stroke-miterlimit:100;stroke-width: 3.6 } 
		.s4 { fill: none;stroke: #ff0000;stroke-miterlimit:100;stroke-width: 3.6 } 
		.s5 { fill: #00ffff } 
		.s6 { fill: #ff0000 } 
		.s7 { fill: #ff00ff } 
		.s8 { fill: #ffff00 } 
	</style>
	<path fill-rule="evenodd" class="s0" d="m213.4 49.6c0 0 69.9-60.7 156.8-2.4"/>
	<path class="svgText" aria-label="(m-d)(m+d)"  d="m180.1 46.5h4.3q-3.6 6.1-5.3 12.1-1.7 6-1.7 12.2 0 6.2 1.7 12.3 1.8 6 5.3 12.1h-4.3q-4-6.3-6-12.3-2-6.1-2-12.1 0-6 2-12 2-6 6-12.3zm37.2 17.3q1.8-3.3 4.4-4.9 2.5-1.6 6-1.6 4.7 0 7.2 3.3 2.6 3.3 2.6 9.3v18.1h-5v-17.9q0-4.3-1.5-6.4-1.5-2.1-4.6-2.1-3.9 0-6.1 2.6-2.2 2.5-2.2 6.9v16.9h-4.9v-17.9q0-4.3-1.6-6.4-1.5-2.1-4.7-2.1-3.7 0-6 2.6-2.2 2.5-2.2 6.9v16.9h-4.9v-29.9h4.9v4.6q1.7-2.7 4.1-4.1 2.3-1.3 5.5-1.3 3.3 0 5.6 1.7 2.3 1.7 3.4 4.8zm27.5 11.4v-4.4h14.4v4.4zm42-12.6v-16.2h4.9v41.6h-4.9v-4.5q-1.6 2.7-4 4-2.3 1.3-5.6 1.3-5.5 0-8.9-4.4-3.4-4.3-3.4-11.3 0-7.1 3.4-11.4 3.4-4.4 8.9-4.4 3.3 0 5.6 1.3 2.4 1.3 4 4zm-16.8 10.5q0 5.4 2.2 8.5 2.3 3.1 6.2 3.1 3.9 0 6.1-3.1 2.3-3.1 2.3-8.5 0-5.5-2.3-8.5-2.2-3.1-6.1-3.1-3.9 0-6.2 3.1-2.2 3-2.2 8.5zm31-26.6h4.3q4 6.3 6 12.3 2 6 2 12 0 6-2 12.1-2 6-6 12.3h-4.3q3.6-6.1 5.3-12.1 1.8-6.1 1.8-12.3 0-6.2-1.8-12.2-1.7-6-5.3-12.1zm29.7 0h4.3q-3.6 6.1-5.3 12.1-1.8 6-1.8 12.2 0 6.2 1.8 12.3 1.7 6 5.3 12.1h-4.3q-4-6.3-6-12.3-2-6.1-2-12.1 0-6 2-12 2-6 6-12.3zm37.1 17.3q1.9-3.3 4.5-4.9 2.5-1.6 6-1.6 4.7 0 7.2 3.3 2.5 3.3 2.5 9.3v18.1h-4.9v-17.9q0-4.3-1.5-6.4-1.5-2.1-4.7-2.1-3.8 0-6 2.6-2.2 2.5-2.2 6.9v16.9h-5v-17.9q0-4.3-1.5-6.4-1.5-2.1-4.7-2.1-3.8 0-6 2.6-2.2 2.5-2.2 6.9v16.9h-5v-29.9h5v4.6q1.7-2.7 4-4.1 2.4-1.3 5.6-1.3 3.3 0 5.5 1.7 2.3 1.7 3.4 4.8zm45.6-10.1h4.5v14.9h14.9v4.5h-14.9v14.9h-4.5v-14.9h-14.9v-4.5h14.9zm50 8.9v-16.2h5v41.6h-5v-4.5q-1.5 2.7-3.9 4-2.3 1.3-5.7 1.3-5.4 0-8.8-4.4-3.4-4.3-3.4-11.4 0-7 3.4-11.3 3.4-4.4 8.8-4.4 3.4 0 5.7 1.3 2.4 1.3 3.9 4zm-16.7 10.4q0 5.5 2.2 8.6 2.2 3 6.1 3 3.9 0 6.2-3 2.2-3.1 2.2-8.6 0-5.4-2.2-8.5-2.3-3.1-6.2-3.1-3.9 0-6.1 3.1-2.2 3.1-2.2 8.5zm31-26.6h4.3q4 6.4 6 12.4 2 6 2 12 0 6-2 12.1-2 6-6 12.3h-4.3q3.6-6.1 5.3-12.2 1.8-6 1.8-12.2 0-6.2-1.8-12.2-1.7-6-5.3-12.2z"/>
	<path fill-rule="evenodd" class="s2" d="m273.1 94.1c0 0 44.3 33.1 102.6-4.2"/>
	<path fill-rule="evenodd" class="s3" d="m274.3 92.9c0 0-19.2 45.2 163.9 0.5"/>
	<path fill-rule="evenodd" class="s4" d="m213.4 49.6c0 0 37.1-94.9 223.6-1.3"/>
	<path class="s5" d="m8 172h56v5h-56z"/>
	<path class="s6" d="m317 172v5h-102v-5z"/>
	<path class="s7" d="m507 172v5h-108v-5z"/>
	<path class="s8" d="m657 172v5h-75v-5z"/>
	<path class="svgText" aria-label="m² + dm - dm - d²"  d="m39.4 131.1q2.4-4.3 5.8-6.4 3.4-2.1 7.9-2.1 6.2 0 9.5 4.3 3.4 4.3 3.4 12.3v23.8h-6.5v-23.6q0-5.7-2-8.4-2-2.8-6.2-2.8-5 0-7.9 3.4-2.9 3.3-2.9 9.1v22.3h-6.6v-23.6q0-5.7-2-8.4-2-2.8-6.2-2.8-4.9 0-7.9 3.4-2.9 3.4-2.9 9.1v22.3h-6.5v-39.4h6.5v6.1q2.2-3.6 5.3-5.4 3.1-1.7 7.4-1.7 4.3 0 7.3 2.2 3 2.2 4.5 6.3zm42.2 4.4h14.9v4h-21.1v-3.9q1.2-1.1 3.4-3.1 12.2-10.7 12.2-14 0-2.3-1.9-3.8-1.8-1.4-4.8-1.4-1.8 0-4 0.6-2.1 0.6-4.7 1.9v-4.4q2.8-0.9 5.1-1.4 2.3-0.5 4.3-0.5 5.2 0 8.2 2.3 3.1 2.3 3.1 6.1 0 4.9-11.7 14.9-2 1.7-3 2.7zm69.6-17.7h5.9v19.6h19.7v6h-19.7v19.6h-5.9v-19.6h-19.6v-6h19.6zm88.9 11.8v-21.4h6.5v54.8h-6.5v-5.9q-2.1 3.5-5.2 5.2-3.1 1.7-7.5 1.7-7.1 0-11.6-5.7-4.5-5.7-4.5-15 0-9.3 4.5-15 4.5-5.7 11.6-5.7 4.4 0 7.5 1.7 3.1 1.7 5.2 5.3zm-22.1 13.7q0 7.2 2.9 11.3 3 4 8.1 4 5.2 0 8.1-4 3-4.1 3-11.3 0-7.1-3-11.2-2.9-4.1-8.1-4.1-5.1 0-8.1 4.1-2.9 4.1-2.9 11.2zm72.6-12.2q2.5-4.3 5.8-6.4 3.4-2.1 8-2.1 6.2 0 9.5 4.4 3.3 4.2 3.3 12.2v23.8h-6.5v-23.6q0-5.7-2-8.4-2-2.7-6.1-2.7-5 0-8 3.3-2.9 3.3-2.9 9.1v22.3h-6.5v-23.6q0-5.7-2-8.4-2-2.7-6.2-2.7-5 0-7.9 3.3-2.9 3.4-2.9 9.1v22.3h-6.5v-39.4h6.5v6.1q2.2-3.6 5.3-5.4 3.1-1.7 7.4-1.7 4.3 0 7.2 2.2 3.1 2.2 4.5 6.3zm59.2 15v-5.7h19v5.7zm78.2-16.5v-21.4h6.5v54.8h-6.5v-5.9q-2 3.5-5.2 5.2-3.1 1.7-7.4 1.7-7.2 0-11.7-5.7-4.5-5.7-4.5-15 0-9.3 4.5-15 4.5-5.7 11.7-5.7 4.3 0 7.4 1.7 3.2 1.7 5.2 5.3zm-22.1 13.7q0 7.2 2.9 11.3 3 4 8.1 4 5.2 0 8.1-4 3-4.1 3-11.3 0-7.1-3-11.2-2.9-4.1-8.1-4.1-5.1 0-8.1 4.1-2.9 4.1-2.9 11.2zm72.6-12.2q2.5-4.3 5.8-6.4 3.4-2.1 8-2.1 6.2 0 9.5 4.4 3.4 4.2 3.4 12.2v23.8h-6.6v-23.6q0-5.7-2-8.4-2-2.7-6.1-2.7-5 0-7.9 3.3-3 3.3-3 9.1v22.3h-6.5v-23.6q0-5.7-2-8.4-2-2.7-6.2-2.7-5 0-7.9 3.3-2.9 3.4-2.9 9.1v22.3h-6.5v-39.4h6.5v6.1q2.2-3.6 5.3-5.4 3.1-1.7 7.4-1.7 4.3 0 7.3 2.2 3 2.2 4.4 6.3zm59.2 15v-5.7h19v5.7zm78.2-16.5v-21.4h6.5v54.8h-6.5v-5.9q-2 3.5-5.2 5.2-3.1 1.7-7.4 1.7-7.2 0-11.7-5.7-4.5-5.7-4.5-15 0-9.3 4.5-15 4.5-5.7 11.7-5.7 4.3 0 7.4 1.7 3.2 1.7 5.2 5.3zm-22.1 13.7q0 7.2 3 11.3 2.9 4 8.1 4 5.1 0 8.1-4 2.9-4.1 2.9-11.3 0-7.1-2.9-11.2-3-4.1-8.1-4.1-5.2 0-8.1 4.1-3 4.1-3 11.2zm44.6-7.8h14.9v4h-21v-3.9q1.2-1.1 3.4-3 12.1-10.8 12.1-14.1 0-2.3-1.8-3.7-1.9-1.5-4.9-1.5-1.8 0-3.9 0.7-2.2 0.6-4.7 1.8v-4.3q2.7-1 5-1.5 2.4-0.5 4.4-0.5 5.1 0 8.1 2.3 3.1 2.3 3.1 6.1 0 4.9-11.7 14.9-1.9 1.7-3 2.7z"/>
</svg>